<svg width="60" height="60" viewBox="0 0 60 60" fill="none" xmlns="http://www.w3.org/2000/svg">
<circle cx="30" cy="30" r="29.5" fill="white" stroke="#BFBFBF"/>
<path d="M24.6657 34.3948H24.6671C24.6682 34.3948 24.6693 34.3945 24.6705 34.3945H40.6055C40.9978 34.3945 41.3427 34.1343 41.4505 33.7571L44.9661 21.4524C45.0419 21.1871 44.9888 20.9019 44.8228 20.6818C44.6567 20.4616 44.3969 20.332 44.1211 20.332H22.6387L22.0104 17.5047C21.9209 17.1025 21.5643 16.8164 21.1523 16.8164H15.8789C15.3934 16.8164 15 17.2099 15 17.6953C15 18.1808 15.3934 18.5742 15.8789 18.5742H20.4474C20.5586 19.0752 23.454 32.1046 23.6206 32.8542C22.6865 33.2602 22.0312 34.1915 22.0312 35.2734C22.0312 36.7273 23.2141 37.9102 24.668 37.9102H40.6055C41.0909 37.9102 41.4844 37.5167 41.4844 37.0313C41.4844 36.5458 41.0909 36.1523 40.6055 36.1523H24.668C24.1834 36.1523 23.7891 35.758 23.7891 35.2734C23.7891 34.7896 24.1821 34.3959 24.6657 34.3948ZM42.9559 22.0898L39.9424 32.6367H25.3729L23.0292 22.0898H42.9559Z" fill="#1F1F1F"/>
<path d="M23.7891 40.5469C23.7891 42.0007 24.9719 43.1836 26.4258 43.1836C27.8796 43.1836 29.0625 42.0007 29.0625 40.5469C29.0625 39.093 27.8796 37.9102 26.4258 37.9102C24.9719 37.9102 23.7891 39.093 23.7891 40.5469ZM26.4258 39.668C26.9103 39.668 27.3047 40.0623 27.3047 40.5469C27.3047 41.0314 26.9103 41.4258 26.4258 41.4258C25.9412 41.4258 25.5469 41.0314 25.5469 40.5469C25.5469 40.0623 25.9412 39.668 26.4258 39.668Z" fill="#1F1F1F"/>
<path d="M36.2109 40.5469C36.2109 42.0007 37.3938 43.1836 38.8477 43.1836C40.3015 43.1836 41.4844 42.0007 41.4844 40.5469C41.4844 39.093 40.3015 37.9102 38.8477 37.9102C37.3938 37.9102 36.2109 39.093 36.2109 40.5469ZM38.8477 39.668C39.3322 39.668 39.7266 40.0623 39.7266 40.5469C39.7266 41.0314 39.3322 41.4258 38.8477 41.4258C38.3631 41.4258 37.9688 41.0314 37.9688 40.5469C37.9688 40.0623 38.3631 39.668 38.8477 39.668Z" fill="#1F1F1F"/>
</svg>
