<svg width="138" height="25" viewBox="0 0 138 25" fill="none" xmlns="http://www.w3.org/2000/svg">
<path d="M12.1724 0.173834C12.2096 0.10127 12.3133 0.10127 12.3504 0.173834L15.9211 7.14733C15.9357 7.1757 15.9628 7.19544 15.9943 7.20049L23.7299 8.4415C23.8104 8.45442 23.8424 8.55305 23.7849 8.61081L18.2561 14.1617C18.2336 14.1843 18.2233 14.2162 18.2282 14.2477L19.4383 21.9882C19.4509 22.0687 19.367 22.1297 19.2943 22.0928L12.3066 18.5499C12.2782 18.5355 12.2446 18.5355 12.2162 18.5499L5.22853 22.0928C5.15582 22.1297 5.07192 22.0687 5.08451 21.9882L6.29467 14.2477C6.29959 14.2162 6.28921 14.1843 6.26672 14.1617L0.737937 8.61081C0.680406 8.55305 0.712454 8.45442 0.792949 8.4415L8.52854 7.20049C8.56001 7.19544 8.58719 7.1757 8.60171 7.14733L12.1724 0.173834Z" fill="#E9A426"/>
<path d="M40.7627 0.173834C40.7999 0.10127 40.9036 0.10127 40.9408 0.173834L44.5115 7.14733C44.526 7.1757 44.5532 7.19544 44.5846 7.20049L52.3202 8.4415C52.4007 8.45442 52.4328 8.55305 52.3753 8.61081L46.8465 14.1617C46.824 14.1843 46.8136 14.2162 46.8185 14.2477L48.0287 21.9882C48.0413 22.0687 47.9574 22.1297 47.8847 22.0928L40.897 18.5499C40.8686 18.5355 40.835 18.5355 40.8065 18.5499L33.8189 22.0928C33.7461 22.1297 33.6622 22.0687 33.6748 21.9882L34.885 14.2477C34.8899 14.2162 34.8795 14.1843 34.8571 14.1617L29.3283 8.61081C29.2707 8.55305 29.3028 8.45442 29.3833 8.4415L37.1189 7.20049C37.1503 7.19544 37.1775 7.1757 37.192 7.14733L40.7627 0.173834Z" fill="#E9A426"/>
<path d="M69.0584 0.173834C69.0956 0.10127 69.1993 0.10127 69.2364 0.173834L72.8071 7.14733C72.8217 7.1757 72.8488 7.19544 72.8803 7.20049L80.6159 8.4415C80.6964 8.45442 80.7284 8.55305 80.6709 8.61081L75.1421 14.1617C75.1196 14.1843 75.1093 14.2162 75.1142 14.2477L76.3243 21.9882C76.3369 22.0687 76.253 22.1297 76.1803 22.0928L69.1926 18.5499C69.1642 18.5355 69.1306 18.5355 69.1022 18.5499L62.1145 22.0928C62.0418 22.1297 61.9579 22.0687 61.9705 21.9882L63.1807 14.2477C63.1856 14.2162 63.1752 14.1843 63.1527 14.1617L57.6239 8.61081C57.5664 8.55305 57.5984 8.45442 57.6789 8.4415L65.4145 7.20049C65.446 7.19544 65.4732 7.1757 65.4877 7.14733L69.0584 0.173834Z" fill="#E9A426"/>
<path d="M97.3539 0.173834C97.3911 0.10127 97.4948 0.10127 97.532 0.173834L101.103 7.14733C101.117 7.1757 101.144 7.19544 101.176 7.20049L108.911 8.4415C108.992 8.45442 109.024 8.55305 108.966 8.61081L103.438 14.1617C103.415 14.1843 103.405 14.2162 103.41 14.2477L104.62 21.9882C104.632 22.0687 104.549 22.1297 104.476 22.0928L97.4882 18.5499C97.4597 18.5355 97.4262 18.5355 97.3977 18.5499L90.41 22.0928C90.3373 22.1297 90.2534 22.0687 90.266 21.9882L91.4762 14.2477C91.4811 14.2162 91.4707 14.1843 91.4482 14.1617L85.9195 8.61081C85.8619 8.55305 85.894 8.45442 85.9745 8.4415L93.7101 7.20049C93.7415 7.19544 93.7687 7.1757 93.7832 7.14733L97.3539 0.173834Z" fill="#E9A426"/>
<path d="M125.65 0.173834C125.687 0.10127 125.79 0.10127 125.828 0.173834L129.398 7.14733C129.413 7.1757 129.44 7.19544 129.471 7.20049L137.207 8.4415C137.288 8.45442 137.32 8.55305 137.262 8.61081L131.733 14.1617C131.711 14.1843 131.7 14.2162 131.705 14.2477L132.916 21.9882C132.928 22.0687 132.844 22.1297 132.771 22.0928L125.784 18.5499C125.755 18.5355 125.722 18.5355 125.693 18.5499L118.706 22.0928C118.633 22.1297 118.549 22.0687 118.562 21.9882L119.772 14.2477C119.777 14.2162 119.766 14.1843 119.744 14.1617L114.215 8.61081C114.158 8.55305 114.19 8.45442 114.27 8.4415L122.006 7.20049C122.037 7.19544 122.064 7.1757 122.079 7.14733L125.65 0.173834Z" fill="#E9A426"/>
</svg>
